<svg width="23" height="23" viewBox="0 0 23 23" fill="none" xmlns="http://www.w3.org/2000/svg">
<path d="M16.6695 7.95842C16.6695 6.48551 16.0844 5.07292 15.0428 4.03141C14.0013 2.9899 12.5887 2.40479 11.1158 2.40479C9.64291 2.40479 8.23032 2.9899 7.18881 4.03141C6.1473 5.07292 5.56219 6.48551 5.56219 7.95842C5.56219 14.4377 2.78537 16.2889 2.78537 16.2889H19.4463C19.4463 16.2889 16.6695 14.4377 16.6695 7.95842Z" stroke="white" stroke-width="1.40805" stroke-linecap="round" stroke-linejoin="round"/>
<path d="M12.7171 19.9913C12.5544 20.2719 12.3208 20.5047 12.0398 20.6666C11.7588 20.8285 11.4401 20.9137 11.1158 20.9137C10.7915 20.9137 10.4729 20.8285 10.1919 20.6666C9.91083 20.5047 9.67726 20.2719 9.51453 19.9913" stroke="white" stroke-width="1.40805" stroke-linecap="round" stroke-linejoin="round"/>
</svg>
